<?xml version="1.0" encoding="UTF-8" standalone="no"?>
<!DOCTYPE svg PUBLIC "-//W3C//DTD SVG 1.1//EN"
 "http://www.w3.org/Graphics/SVG/1.1/DTD/svg11.dtd">
<!-- Generated by graphviz version 2.47.3 (20210619.1520)
 -->
<!-- Title: test Pages: 1 -->
<svg width="244pt" height="66pt"
 viewBox="0.00 0.00 244.00 66.00" xmlns="http://www.w3.org/2000/svg" xmlns:xlink="http://www.w3.org/1999/xlink">
<g id="graph0" class="graph" transform="scale(1 1) rotate(0) translate(4 62)">
<title>test</title>
<polygon fill="white" stroke="transparent" points="-4,4 -4,-62 240,-62 240,4 -4,4"/>
<!-- Node1 -->
<g id="node1" class="node">
<title>Node1</title>
<g id="a_node1"><a xlink:title="Self&#45;test implementations.">
<polygon fill="#bfbfbf" stroke="black" points="0,-19.5 0,-38.5 33,-38.5 33,-19.5 0,-19.5"/>
<text text-anchor="middle" x="16.5" y="-26.5" font-family="Helvetica,sans-Serif" font-size="10.00">test</text>
</a>
</g>
</g>
<!-- Node2 -->
<g id="node2" class="node">
<title>Node2</title>
<g id="a_node2"><a xlink:href="../../dc/d39/selection__sort__recursive_8c.html#a3f04d850b94a34dcaaed0e7bc7475241" target="_top" xlink:title="Selection Sort algorithm implemented using recursion.">
<polygon fill="white" stroke="black" points="69,-19.5 69,-38.5 143,-38.5 143,-19.5 69,-19.5"/>
<text text-anchor="middle" x="106" y="-26.5" font-family="Helvetica,sans-Serif" font-size="10.00">selectionSort</text>
</a>
</g>
</g>
<!-- Node1&#45;&gt;Node2 -->
<g id="edge1" class="edge">
<title>Node1&#45;&gt;Node2</title>
<path fill="none" stroke="midnightblue" d="M33.14,-29C40.44,-29 49.53,-29 58.78,-29"/>
<polygon fill="midnightblue" stroke="midnightblue" points="58.79,-32.5 68.79,-29 58.79,-25.5 58.79,-32.5"/>
</g>
<!-- Node3 -->
<g id="node3" class="node">
<title>Node3</title>
<g id="a_node3"><a xlink:href="../../dc/d39/selection__sort__recursive_8c.html#aa2bc8bdd2e8ce289a6b8ef528fd1a534" target="_top" xlink:title="Returns the index having minimum value using recursion.">
<polygon fill="white" stroke="black" points="179,-38.5 179,-57.5 236,-57.5 236,-38.5 179,-38.5"/>
<text text-anchor="middle" x="207.5" y="-45.5" font-family="Helvetica,sans-Serif" font-size="10.00">findIndex</text>
</a>
</g>
</g>
<!-- Node2&#45;&gt;Node3 -->
<g id="edge2" class="edge">
<title>Node2&#45;&gt;Node3</title>
<path fill="none" stroke="midnightblue" d="M143.2,-35.91C151.58,-37.51 160.51,-39.22 168.94,-40.83"/>
<polygon fill="midnightblue" stroke="midnightblue" points="168.43,-44.29 178.91,-42.73 169.74,-37.42 168.43,-44.29"/>
</g>
<!-- Node4 -->
<g id="node4" class="node">
<title>Node4</title>
<g id="a_node4"><a xlink:href="../../dc/d39/selection__sort__recursive_8c.html#aaf68497ab808b560dbf109da6435905a" target="_top" xlink:title="for assert">
<polygon fill="white" stroke="black" points="187.5,-0.5 187.5,-19.5 227.5,-19.5 227.5,-0.5 187.5,-0.5"/>
<text text-anchor="middle" x="207.5" y="-7.5" font-family="Helvetica,sans-Serif" font-size="10.00">swap</text>
</a>
</g>
</g>
<!-- Node2&#45;&gt;Node4 -->
<g id="edge3" class="edge">
<title>Node2&#45;&gt;Node4</title>
<path fill="none" stroke="midnightblue" d="M143.2,-22.09C154.37,-19.95 166.53,-17.63 177.17,-15.6"/>
<polygon fill="midnightblue" stroke="midnightblue" points="178.06,-18.99 187.22,-13.68 176.74,-12.12 178.06,-18.99"/>
</g>
</g>
</svg>
