<?xml version="1.0" encoding="UTF-8" standalone="no"?>
<!DOCTYPE svg PUBLIC "-//W3C//DTD SVG 1.1//EN"
 "http://www.w3.org/Graphics/SVG/1.1/DTD/svg11.dtd">
<!-- Generated by graphviz version 2.48.0 (20210717.1556)
 -->
<!-- Title: test Pages: 1 -->
<svg width="637pt" height="142pt"
 viewBox="0.00 0.00 637.00 142.00" xmlns="http://www.w3.org/2000/svg" xmlns:xlink="http://www.w3.org/1999/xlink">
<g id="graph0" class="graph" transform="scale(1 1) rotate(0) translate(4 138)">
<title>test</title>
<polygon fill="white" stroke="transparent" points="-4,4 -4,-138 633,-138 633,4 -4,4"/>
<!-- Node1 -->
<g id="node1" class="node">
<title>Node1</title>
<g id="a_node1"><a xlink:title="Self&#45;test implementations.">
<polygon fill="#bfbfbf" stroke="black" points="0,-57.5 0,-76.5 33,-76.5 33,-57.5 0,-57.5"/>
<text text-anchor="middle" x="16.5" y="-64.5" font-family="Helvetica,sans-Serif" font-size="10.00">test</text>
</a>
</g>
</g>
<!-- Node2 -->
<g id="node2" class="node">
<title>Node2</title>
<g id="a_node2"><a xlink:href="../../d3/d78/words__alphabetical_8c.html#af1f9b6eb320d872ba0766dc8bd070075" target="_top" xlink:title="Closes the file after reading or writing.">
<polygon fill="white" stroke="black" points="251,-114.5 251,-133.5 307,-133.5 307,-114.5 251,-114.5"/>
<text text-anchor="middle" x="279" y="-121.5" font-family="Helvetica,sans-Serif" font-size="10.00">closeFile</text>
</a>
</g>
</g>
<!-- Node1&#45;&gt;Node2 -->
<g id="edge1" class="edge">
<title>Node1&#45;&gt;Node2</title>
<path fill="none" stroke="midnightblue" d="M27.15,-76.7C36.82,-85.75 52.59,-98.76 69,-105 125.99,-126.66 197.76,-128.12 240.65,-126.54"/>
<polygon fill="midnightblue" stroke="midnightblue" points="241.07,-130.02 250.91,-126.08 240.76,-123.03 241.07,-130.02"/>
</g>
<!-- Node4 -->
<g id="node4" class="node">
<title>Node4</title>
<g id="a_node4"><a xlink:href="../../d3/d78/words__alphabetical_8c.html#a840902ada0e956eb01b529be178748cc" target="_top" xlink:title="Frees memory when program is terminating.">
<polygon fill="white" stroke="black" points="89,-76.5 89,-95.5 179,-95.5 179,-76.5 89,-76.5"/>
<text text-anchor="middle" x="134" y="-83.5" font-family="Helvetica,sans-Serif" font-size="10.00">freeTreeMemory</text>
</a>
</g>
</g>
<!-- Node1&#45;&gt;Node4 -->
<g id="edge3" class="edge">
<title>Node1&#45;&gt;Node4</title>
<path fill="none" stroke="midnightblue" d="M33.08,-69.56C44.91,-71.51 61.93,-74.31 78.58,-77.05"/>
<polygon fill="midnightblue" stroke="midnightblue" points="78.41,-80.57 88.85,-78.74 79.55,-73.66 78.41,-80.57"/>
</g>
<!-- Node5 -->
<g id="node5" class="node">
<title>Node5</title>
<g id="a_node5"><a xlink:href="../../d3/d78/words__alphabetical_8c.html#a21df701de6ad940f6129b5b160e3e639" target="_top" xlink:title="Reads words from file to tree.">
<polygon fill="white" stroke="black" points="74,-38.5 74,-57.5 194,-57.5 194,-38.5 74,-38.5"/>
<text text-anchor="middle" x="134" y="-45.5" font-family="Helvetica,sans-Serif" font-size="10.00">readWordsInFileToTree</text>
</a>
</g>
</g>
<!-- Node1&#45;&gt;Node5 -->
<g id="edge4" class="edge">
<title>Node1&#45;&gt;Node5</title>
<path fill="none" stroke="midnightblue" d="M33.08,-64.44C41.69,-63.02 53.05,-61.15 65.02,-59.18"/>
<polygon fill="midnightblue" stroke="midnightblue" points="65.86,-62.59 75.16,-57.51 64.73,-55.68 65.86,-62.59"/>
</g>
<!-- Node9 -->
<g id="node9" class="node">
<title>Node9</title>
<g id="a_node9"><a xlink:href="../../d3/d78/words__alphabetical_8c.html#a22516c70583c9fa78e4edffb063836cc" target="_top" xlink:title="Writes contents of tree to another file alphabetically.">
<polygon fill="white" stroke="black" points="69,-0.5 69,-19.5 199,-19.5 199,-0.5 69,-0.5"/>
<text text-anchor="middle" x="134" y="-7.5" font-family="Helvetica,sans-Serif" font-size="10.00">writeContentOfTreeToFile</text>
</a>
</g>
</g>
<!-- Node1&#45;&gt;Node9 -->
<g id="edge10" class="edge">
<title>Node1&#45;&gt;Node9</title>
<path fill="none" stroke="midnightblue" d="M28.22,-57.34C38.16,-48.83 53.68,-36.63 69,-29 73.55,-26.73 78.42,-24.68 83.37,-22.85"/>
<polygon fill="midnightblue" stroke="midnightblue" points="84.59,-26.13 92.92,-19.57 82.32,-19.51 84.59,-26.13"/>
</g>
<!-- Node3 -->
<g id="node3" class="node">
<title>Node3</title>
<g id="a_node3"><a xlink:href="../../d3/d78/words__alphabetical_8c.html#a5157a5b4e164f934602fa78413504029" target="_top" xlink:title="Ends program due to an error.">
<polygon fill="white" stroke="black" points="521,-76.5 521,-95.5 629,-95.5 629,-76.5 521,-76.5"/>
<text text-anchor="middle" x="575" y="-83.5" font-family="Helvetica,sans-Serif" font-size="10.00">endProgramAbruptly</text>
</a>
</g>
</g>
<!-- Node2&#45;&gt;Node3 -->
<g id="edge2" class="edge">
<title>Node2&#45;&gt;Node3</title>
<path fill="none" stroke="midnightblue" d="M307.32,-122.5C346.73,-120.09 421.75,-114.65 485,-105 497.82,-103.04 511.56,-100.39 524.32,-97.69"/>
<polygon fill="midnightblue" stroke="midnightblue" points="525.28,-101.06 534.31,-95.52 523.8,-94.22 525.28,-101.06"/>
</g>
<!-- Node6 -->
<g id="node6" class="node">
<title>Node6</title>
<g id="a_node6"><a xlink:href="../../d3/d78/words__alphabetical_8c.html#a3b49c3b4ee0597a708051bfdc5bef60e" target="_top" xlink:title="Adds word (node) to the correct position in tree.">
<polygon fill="white" stroke="black" points="235,-38.5 235,-57.5 323,-57.5 323,-38.5 235,-38.5"/>
<text text-anchor="middle" x="279" y="-45.5" font-family="Helvetica,sans-Serif" font-size="10.00">addWordToTree</text>
</a>
</g>
</g>
<!-- Node5&#45;&gt;Node6 -->
<g id="edge5" class="edge">
<title>Node5&#45;&gt;Node6</title>
<path fill="none" stroke="midnightblue" d="M194.4,-48C204.43,-48 214.78,-48 224.63,-48"/>
<polygon fill="midnightblue" stroke="midnightblue" points="224.7,-51.5 234.7,-48 224.7,-44.5 224.7,-51.5"/>
</g>
<!-- Node7 -->
<g id="node7" class="node">
<title>Node7</title>
<g id="a_node7"><a xlink:href="../../d3/d78/words__alphabetical_8c.html#a6e8b3fc7d90cc2fff6632538628663ef" target="_top" xlink:title="Reserves memory for new node.">
<polygon fill="white" stroke="black" points="359,-76.5 359,-95.5 485,-95.5 485,-76.5 359,-76.5"/>
<text text-anchor="middle" x="422" y="-83.5" font-family="Helvetica,sans-Serif" font-size="10.00">allocateMemoryForNode</text>
</a>
</g>
</g>
<!-- Node6&#45;&gt;Node7 -->
<g id="edge6" class="edge">
<title>Node6&#45;&gt;Node7</title>
<path fill="none" stroke="midnightblue" d="M315.58,-57.59C333.78,-62.49 356.14,-68.52 375.57,-73.76"/>
<polygon fill="midnightblue" stroke="midnightblue" points="374.86,-77.19 385.43,-76.41 376.69,-70.43 374.86,-77.19"/>
</g>
<!-- Node8 -->
<g id="node8" class="node">
<title>Node8</title>
<g id="a_node8"><a xlink:href="../../d3/d78/words__alphabetical_8c.html#a90d7a9c7044b050a3973f681ee6b8e55" target="_top" xlink:title="Stores word in memory.">
<polygon fill="white" stroke="black" points="374,-38.5 374,-57.5 470,-57.5 470,-38.5 374,-38.5"/>
<text text-anchor="middle" x="422" y="-45.5" font-family="Helvetica,sans-Serif" font-size="10.00">getPointerToWord</text>
</a>
</g>
</g>
<!-- Node6&#45;&gt;Node8 -->
<g id="edge8" class="edge">
<title>Node6&#45;&gt;Node8</title>
<path fill="none" stroke="midnightblue" d="M323.07,-48C335.85,-48 350.05,-48 363.59,-48"/>
<polygon fill="midnightblue" stroke="midnightblue" points="363.77,-51.5 373.77,-48 363.77,-44.5 363.77,-51.5"/>
</g>
<!-- Node7&#45;&gt;Node3 -->
<g id="edge7" class="edge">
<title>Node7&#45;&gt;Node3</title>
<path fill="none" stroke="midnightblue" d="M485.29,-86C493.72,-86 502.38,-86 510.83,-86"/>
<polygon fill="midnightblue" stroke="midnightblue" points="511,-89.5 521,-86 511,-82.5 511,-89.5"/>
</g>
<!-- Node8&#45;&gt;Node3 -->
<g id="edge9" class="edge">
<title>Node8&#45;&gt;Node3</title>
<path fill="none" stroke="midnightblue" d="M461.1,-57.59C480.94,-62.58 505.38,-68.73 526.45,-74.03"/>
<polygon fill="midnightblue" stroke="midnightblue" points="525.62,-77.43 536.17,-76.48 527.33,-70.65 525.62,-77.43"/>
</g>
</g>
</svg>
