<?xml version="1.0" encoding="UTF-8" standalone="no"?>
<!DOCTYPE svg PUBLIC "-//W3C//DTD SVG 1.1//EN"
 "http://www.w3.org/Graphics/SVG/1.1/DTD/svg11.dtd">
<!-- Generated by graphviz version 2.48.0 (20210717.1556)
 -->
<!-- Title: main Pages: 1 -->
<svg width="711pt" height="142pt"
 viewBox="0.00 0.00 711.00 142.00" xmlns="http://www.w3.org/2000/svg" xmlns:xlink="http://www.w3.org/1999/xlink">
<g id="graph0" class="graph" transform="scale(1 1) rotate(0) translate(4 138)">
<title>main</title>
<polygon fill="white" stroke="transparent" points="-4,4 -4,-138 707,-138 707,4 -4,4"/>
<!-- Node1 -->
<g id="node1" class="node">
<title>Node1</title>
<g id="a_node1"><a xlink:title="Main function.">
<polygon fill="#bfbfbf" stroke="black" points="0,-57.5 0,-76.5 38,-76.5 38,-57.5 0,-57.5"/>
<text text-anchor="middle" x="19" y="-64.5" font-family="Helvetica,sans-Serif" font-size="10.00">main</text>
</a>
</g>
</g>
<!-- Node2 -->
<g id="node2" class="node">
<title>Node2</title>
<g id="a_node2"><a xlink:href="../../d3/d78/words__alphabetical_8c.html#aa8dca7b867074164d5f45b0f3851269d" target="_top" xlink:title="Self&#45;test implementations.">
<polygon fill="white" stroke="black" points="74,-57.5 74,-76.5 107,-76.5 107,-57.5 74,-57.5"/>
<text text-anchor="middle" x="90.5" y="-64.5" font-family="Helvetica,sans-Serif" font-size="10.00">test</text>
</a>
</g>
</g>
<!-- Node1&#45;&gt;Node2 -->
<g id="edge1" class="edge">
<title>Node1&#45;&gt;Node2</title>
<path fill="none" stroke="midnightblue" d="M38.26,-67C46.07,-67 55.31,-67 63.79,-67"/>
<polygon fill="midnightblue" stroke="midnightblue" points="63.95,-70.5 73.95,-67 63.95,-63.5 63.95,-70.5"/>
</g>
<!-- Node3 -->
<g id="node3" class="node">
<title>Node3</title>
<g id="a_node3"><a xlink:href="../../d3/d78/words__alphabetical_8c.html#af1f9b6eb320d872ba0766dc8bd070075" target="_top" xlink:title="Closes the file after reading or writing.">
<polygon fill="white" stroke="black" points="325,-114.5 325,-133.5 381,-133.5 381,-114.5 325,-114.5"/>
<text text-anchor="middle" x="353" y="-121.5" font-family="Helvetica,sans-Serif" font-size="10.00">closeFile</text>
</a>
</g>
</g>
<!-- Node2&#45;&gt;Node3 -->
<g id="edge2" class="edge">
<title>Node2&#45;&gt;Node3</title>
<path fill="none" stroke="midnightblue" d="M101.15,-76.7C110.82,-85.75 126.59,-98.76 143,-105 199.99,-126.66 271.76,-128.12 314.65,-126.54"/>
<polygon fill="midnightblue" stroke="midnightblue" points="315.07,-130.02 324.91,-126.08 314.76,-123.03 315.07,-130.02"/>
</g>
<!-- Node5 -->
<g id="node5" class="node">
<title>Node5</title>
<g id="a_node5"><a xlink:href="../../d3/d78/words__alphabetical_8c.html#a840902ada0e956eb01b529be178748cc" target="_top" xlink:title="Frees memory when program is terminating.">
<polygon fill="white" stroke="black" points="163,-76.5 163,-95.5 253,-95.5 253,-76.5 163,-76.5"/>
<text text-anchor="middle" x="208" y="-83.5" font-family="Helvetica,sans-Serif" font-size="10.00">freeTreeMemory</text>
</a>
</g>
</g>
<!-- Node2&#45;&gt;Node5 -->
<g id="edge4" class="edge">
<title>Node2&#45;&gt;Node5</title>
<path fill="none" stroke="midnightblue" d="M107.08,-69.56C118.91,-71.51 135.93,-74.31 152.58,-77.05"/>
<polygon fill="midnightblue" stroke="midnightblue" points="152.41,-80.57 162.85,-78.74 153.55,-73.66 152.41,-80.57"/>
</g>
<!-- Node6 -->
<g id="node6" class="node">
<title>Node6</title>
<g id="a_node6"><a xlink:href="../../d3/d78/words__alphabetical_8c.html#a21df701de6ad940f6129b5b160e3e639" target="_top" xlink:title="Reads words from file to tree.">
<polygon fill="white" stroke="black" points="148,-38.5 148,-57.5 268,-57.5 268,-38.5 148,-38.5"/>
<text text-anchor="middle" x="208" y="-45.5" font-family="Helvetica,sans-Serif" font-size="10.00">readWordsInFileToTree</text>
</a>
</g>
</g>
<!-- Node2&#45;&gt;Node6 -->
<g id="edge5" class="edge">
<title>Node2&#45;&gt;Node6</title>
<path fill="none" stroke="midnightblue" d="M107.08,-64.44C115.69,-63.02 127.05,-61.15 139.02,-59.18"/>
<polygon fill="midnightblue" stroke="midnightblue" points="139.86,-62.59 149.16,-57.51 138.73,-55.68 139.86,-62.59"/>
</g>
<!-- Node10 -->
<g id="node10" class="node">
<title>Node10</title>
<g id="a_node10"><a xlink:href="../../d3/d78/words__alphabetical_8c.html#a22516c70583c9fa78e4edffb063836cc" target="_top" xlink:title="Writes contents of tree to another file alphabetically.">
<polygon fill="white" stroke="black" points="143,-0.5 143,-19.5 273,-19.5 273,-0.5 143,-0.5"/>
<text text-anchor="middle" x="208" y="-7.5" font-family="Helvetica,sans-Serif" font-size="10.00">writeContentOfTreeToFile</text>
</a>
</g>
</g>
<!-- Node2&#45;&gt;Node10 -->
<g id="edge11" class="edge">
<title>Node2&#45;&gt;Node10</title>
<path fill="none" stroke="midnightblue" d="M102.22,-57.34C112.16,-48.83 127.68,-36.63 143,-29 147.55,-26.73 152.42,-24.68 157.37,-22.85"/>
<polygon fill="midnightblue" stroke="midnightblue" points="158.59,-26.13 166.92,-19.57 156.32,-19.51 158.59,-26.13"/>
</g>
<!-- Node4 -->
<g id="node4" class="node">
<title>Node4</title>
<g id="a_node4"><a xlink:href="../../d3/d78/words__alphabetical_8c.html#a5157a5b4e164f934602fa78413504029" target="_top" xlink:title="Ends program due to an error.">
<polygon fill="white" stroke="black" points="595,-76.5 595,-95.5 703,-95.5 703,-76.5 595,-76.5"/>
<text text-anchor="middle" x="649" y="-83.5" font-family="Helvetica,sans-Serif" font-size="10.00">endProgramAbruptly</text>
</a>
</g>
</g>
<!-- Node3&#45;&gt;Node4 -->
<g id="edge3" class="edge">
<title>Node3&#45;&gt;Node4</title>
<path fill="none" stroke="midnightblue" d="M381.32,-122.5C420.73,-120.09 495.75,-114.65 559,-105 571.82,-103.04 585.56,-100.39 598.32,-97.69"/>
<polygon fill="midnightblue" stroke="midnightblue" points="599.28,-101.06 608.31,-95.52 597.8,-94.22 599.28,-101.06"/>
</g>
<!-- Node7 -->
<g id="node7" class="node">
<title>Node7</title>
<g id="a_node7"><a xlink:href="../../d3/d78/words__alphabetical_8c.html#a3b49c3b4ee0597a708051bfdc5bef60e" target="_top" xlink:title="Adds word (node) to the correct position in tree.">
<polygon fill="white" stroke="black" points="309,-38.5 309,-57.5 397,-57.5 397,-38.5 309,-38.5"/>
<text text-anchor="middle" x="353" y="-45.5" font-family="Helvetica,sans-Serif" font-size="10.00">addWordToTree</text>
</a>
</g>
</g>
<!-- Node6&#45;&gt;Node7 -->
<g id="edge6" class="edge">
<title>Node6&#45;&gt;Node7</title>
<path fill="none" stroke="midnightblue" d="M268.4,-48C278.43,-48 288.78,-48 298.63,-48"/>
<polygon fill="midnightblue" stroke="midnightblue" points="298.7,-51.5 308.7,-48 298.7,-44.5 298.7,-51.5"/>
</g>
<!-- Node8 -->
<g id="node8" class="node">
<title>Node8</title>
<g id="a_node8"><a xlink:href="../../d3/d78/words__alphabetical_8c.html#a6e8b3fc7d90cc2fff6632538628663ef" target="_top" xlink:title="Reserves memory for new node.">
<polygon fill="white" stroke="black" points="433,-76.5 433,-95.5 559,-95.5 559,-76.5 433,-76.5"/>
<text text-anchor="middle" x="496" y="-83.5" font-family="Helvetica,sans-Serif" font-size="10.00">allocateMemoryForNode</text>
</a>
</g>
</g>
<!-- Node7&#45;&gt;Node8 -->
<g id="edge7" class="edge">
<title>Node7&#45;&gt;Node8</title>
<path fill="none" stroke="midnightblue" d="M389.58,-57.59C407.78,-62.49 430.14,-68.52 449.57,-73.76"/>
<polygon fill="midnightblue" stroke="midnightblue" points="448.86,-77.19 459.43,-76.41 450.69,-70.43 448.86,-77.19"/>
</g>
<!-- Node9 -->
<g id="node9" class="node">
<title>Node9</title>
<g id="a_node9"><a xlink:href="../../d3/d78/words__alphabetical_8c.html#a90d7a9c7044b050a3973f681ee6b8e55" target="_top" xlink:title="Stores word in memory.">
<polygon fill="white" stroke="black" points="448,-38.5 448,-57.5 544,-57.5 544,-38.5 448,-38.5"/>
<text text-anchor="middle" x="496" y="-45.5" font-family="Helvetica,sans-Serif" font-size="10.00">getPointerToWord</text>
</a>
</g>
</g>
<!-- Node7&#45;&gt;Node9 -->
<g id="edge9" class="edge">
<title>Node7&#45;&gt;Node9</title>
<path fill="none" stroke="midnightblue" d="M397.07,-48C409.85,-48 424.05,-48 437.59,-48"/>
<polygon fill="midnightblue" stroke="midnightblue" points="437.77,-51.5 447.77,-48 437.77,-44.5 437.77,-51.5"/>
</g>
<!-- Node8&#45;&gt;Node4 -->
<g id="edge8" class="edge">
<title>Node8&#45;&gt;Node4</title>
<path fill="none" stroke="midnightblue" d="M559.29,-86C567.72,-86 576.38,-86 584.83,-86"/>
<polygon fill="midnightblue" stroke="midnightblue" points="585,-89.5 595,-86 585,-82.5 585,-89.5"/>
</g>
<!-- Node9&#45;&gt;Node4 -->
<g id="edge10" class="edge">
<title>Node9&#45;&gt;Node4</title>
<path fill="none" stroke="midnightblue" d="M535.1,-57.59C554.94,-62.58 579.38,-68.73 600.45,-74.03"/>
<polygon fill="midnightblue" stroke="midnightblue" points="599.62,-77.43 610.17,-76.48 601.33,-70.65 599.62,-77.43"/>
</g>
</g>
</svg>
