<?xml version="1.0" encoding="UTF-8" standalone="no"?>
<!DOCTYPE svg PUBLIC "-//W3C//DTD SVG 1.1//EN"
 "http://www.w3.org/Graphics/SVG/1.1/DTD/svg11.dtd">
<!-- Generated by graphviz version 2.48.0 (20210717.1556)
 -->
<!-- Title: Graph Pages: 1 -->
<svg width="168pt" height="174pt"
 viewBox="0.00 0.00 167.50 174.00" xmlns="http://www.w3.org/2000/svg" xmlns:xlink="http://www.w3.org/1999/xlink">
<g id="graph0" class="graph" transform="scale(1 1) rotate(0) translate(4 170)">
<title>Graph</title>
<polygon fill="white" stroke="transparent" points="-4,4 -4,-170 163.5,-170 163.5,4 -4,4"/>
<!-- Node1 -->
<g id="node1" class="node">
<title>Node1</title>
<g id="a_node1"><a xlink:title=" ">
<polygon fill="#bfbfbf" stroke="black" points="57.5,-0.5 57.5,-19.5 101.5,-19.5 101.5,-0.5 57.5,-0.5"/>
<text text-anchor="middle" x="79.5" y="-7.5" font-family="Helvetica,sans-Serif" font-size="10.00">Graph</text>
</a>
</g>
</g>
<!-- Node2 -->
<g id="node2" class="node">
<title>Node2</title>
<g id="a_node2"><a xlink:href="../../d5/da1/structnode.html" target="_top" xlink:title="Node, the basic data structure in the tree.">
<polygon fill="white" stroke="black" points="0,-112.5 0,-131.5 39,-131.5 39,-112.5 0,-112.5"/>
<text text-anchor="middle" x="19.5" y="-119.5" font-family="Helvetica,sans-Serif" font-size="10.00">node</text>
</a>
</g>
</g>
<!-- Node2&#45;&gt;Node1 -->
<g id="edge1" class="edge">
<title>Node2&#45;&gt;Node1</title>
<path fill="none" stroke="#9a32cd" stroke-dasharray="5,2" d="M29.14,-103.32C42.21,-79.37 65.02,-37.55 74.81,-19.59"/>
<polygon fill="#9a32cd" stroke="#9a32cd" points="25.92,-101.91 24.21,-112.37 32.07,-105.27 25.92,-101.91"/>
<text text-anchor="middle" x="82" y="-46.5" font-family="Helvetica,sans-Serif" font-size="10.00"> adjLists</text>
</g>
<!-- Node2&#45;&gt;Node2 -->
<g id="edge2" class="edge">
<title>Node2&#45;&gt;Node2</title>
<path fill="none" stroke="#9a32cd" stroke-dasharray="5,2" d="M39.37,-135.2C48.76,-136.74 57,-132.34 57,-122 57,-108.22 42.35,-104.99 29.87,-112.31"/>
<polygon fill="#9a32cd" stroke="#9a32cd" points="40.46,-131.87 29.87,-131.69 38.03,-138.44 40.46,-131.87"/>
<text text-anchor="middle" x="79" y="-158" font-family="Helvetica,sans-Serif" font-size="10.00"> left</text>
<text text-anchor="middle" x="79" y="-147" font-family="Helvetica,sans-Serif" font-size="10.00">leftNode</text>
<text text-anchor="middle" x="79" y="-136" font-family="Helvetica,sans-Serif" font-size="10.00">link</text>
<text text-anchor="middle" x="79" y="-125" font-family="Helvetica,sans-Serif" font-size="10.00">next</text>
<text text-anchor="middle" x="79" y="-114" font-family="Helvetica,sans-Serif" font-size="10.00">par</text>
<text text-anchor="middle" x="79" y="-103" font-family="Helvetica,sans-Serif" font-size="10.00">pre</text>
<text text-anchor="middle" x="79" y="-92" font-family="Helvetica,sans-Serif" font-size="10.00">right</text>
<text text-anchor="middle" x="79" y="-81" font-family="Helvetica,sans-Serif" font-size="10.00">rightNode</text>
</g>
<!-- Node3 -->
<g id="node3" class="node">
<title>Node3</title>
<g id="a_node3"><a xlink:href="../../d5/db4/struct_edge.html" target="_top" xlink:title=" ">
<polygon fill="white" stroke="black" points="119.5,-112.5 119.5,-131.5 159.5,-131.5 159.5,-112.5 119.5,-112.5"/>
<text text-anchor="middle" x="139.5" y="-119.5" font-family="Helvetica,sans-Serif" font-size="10.00">Edge</text>
</a>
</g>
</g>
<!-- Node3&#45;&gt;Node1 -->
<g id="edge3" class="edge">
<title>Node3&#45;&gt;Node1</title>
<path fill="none" stroke="#9a32cd" stroke-dasharray="5,2" d="M133.86,-102.73C128,-85.29 117.84,-58.68 104.5,-38 100.21,-31.34 94.21,-24.8 89.16,-19.82"/>
<polygon fill="#9a32cd" stroke="#9a32cd" points="130.53,-103.83 136.93,-112.27 137.19,-101.68 130.53,-103.83"/>
<text text-anchor="middle" x="129.5" y="-52" font-family="Helvetica,sans-Serif" font-size="10.00"> edge</text>
<text text-anchor="middle" x="129.5" y="-41" font-family="Helvetica,sans-Serif" font-size="10.00">edges</text>
</g>
</g>
</svg>
