<?xml version="1.0" encoding="UTF-8" standalone="no"?>
<!DOCTYPE svg PUBLIC "-//W3C//DTD SVG 1.1//EN"
 "http://www.w3.org/Graphics/SVG/1.1/DTD/svg11.dtd">
<!-- Generated by graphviz version 2.47.3 (20210619.1520)
 -->
<!-- Title: Library for 3D Vectors &amp; Quaternions Pages: 1 -->
<svg width="288pt" height="150pt"
 viewBox="0.00 0.00 288.00 149.50" xmlns="http://www.w3.org/2000/svg" xmlns:xlink="http://www.w3.org/1999/xlink">
<g id="graph0" class="graph" transform="scale(1 1) rotate(0) translate(4 145.5)">
<title>Library for 3D Vectors &amp; Quaternions</title>
<polygon fill="white" stroke="transparent" points="-4,4 -4,-145.5 284,-145.5 284,4 -4,4"/>
<!-- Node4 -->
<g id="node1" class="node">
<title>Node4</title>
<g id="a_node1"><a xlink:href="../../dc/d9a/group__quats.html" target="_top" xlink:title=" ">
<polygon fill="white" stroke="black" points="280,-141.5 149,-141.5 149,-122.5 280,-122.5 280,-141.5"/>
<text text-anchor="middle" x="214.5" y="-129.5" font-family="Helvetica,sans-Serif" font-size="10.00">3D Quaternion operations</text>
</a>
</g>
</g>
<!-- Node3 -->
<g id="node2" class="node">
<title>Node3</title>
<g id="a_node2"><a xlink:href="../../dd/d7a/group__matrix.html" target="_top" xlink:title=" ">
<polygon fill="white" stroke="black" points="261,-104.5 168,-104.5 168,-85.5 261,-85.5 261,-104.5"/>
<text text-anchor="middle" x="214.5" y="-92.5" font-family="Helvetica,sans-Serif" font-size="10.00">Matrix operations</text>
</a>
</g>
</g>
<!-- Node2 -->
<g id="node3" class="node">
<title>Node2</title>
<g id="a_node3"><a xlink:href="../../de/d7b/group__vec__3d.html" target="_top" xlink:title=" ">
<polygon fill="white" stroke="black" points="269.5,-67.5 159.5,-67.5 159.5,-48.5 269.5,-48.5 269.5,-67.5"/>
<text text-anchor="middle" x="214.5" y="-55.5" font-family="Helvetica,sans-Serif" font-size="10.00">3D Vector operations</text>
</a>
</g>
</g>
<!-- Node5 -->
<g id="node4" class="node">
<title>Node5</title>
<g id="a_node4"><a xlink:href="../../d4/d69/group__dual__quats.html" target="_top" xlink:title=" ">
<polygon fill="white" stroke="black" points="267,-30 162,-30 162,0 267,0 267,-30"/>
<text text-anchor="start" x="170" y="-18" font-family="Helvetica,sans-Serif" font-size="10.00">3D Dual&#45;Quaternion</text>
<text text-anchor="middle" x="214.5" y="-7" font-family="Helvetica,sans-Serif" font-size="10.00"> operations</text>
</a>
</g>
</g>
<!-- Node1 -->
<g id="node5" class="node">
<title>Node1</title>
<g id="a_node5"><a xlink:title=" ">
<polygon fill="#bfbfbf" stroke="black" points="113,-91 0,-91 0,-61 113,-61 113,-91"/>
<text text-anchor="start" x="8" y="-79" font-family="Helvetica,sans-Serif" font-size="10.00">Library for 3D Vectors</text>
<text text-anchor="middle" x="56.5" y="-68" font-family="Helvetica,sans-Serif" font-size="10.00"> &amp; Quaternions</text>
</a>
</g>
</g>
<!-- Node1&#45;&gt;Node4 -->
<g id="edge3" class="edge">
<title>Node1&#45;&gt;Node4</title>
<path fill="none" stroke="black" d="M100.63,-95.18C115.77,-101.57 133,-108.47 149,-114 157.79,-117.04 167.39,-119.94 176.42,-122.48"/>
<polygon fill="black" stroke="black" points="101.59,-91.78 91.02,-91.07 98.84,-98.22 101.59,-91.78"/>
</g>
<!-- Node1&#45;&gt;Node3 -->
<g id="edge2" class="edge">
<title>Node1&#45;&gt;Node3</title>
<path fill="none" stroke="black" d="M123.56,-84.05C138.45,-85.86 153.92,-87.74 167.76,-89.43"/>
<polygon fill="black" stroke="black" points="123.73,-80.54 113.38,-82.81 122.88,-87.49 123.73,-80.54"/>
</g>
<!-- Node1&#45;&gt;Node2 -->
<g id="edge1" class="edge">
<title>Node1&#45;&gt;Node2</title>
<path fill="none" stroke="black" d="M123.33,-68.4C135.33,-67.02 147.71,-65.59 159.32,-64.25"/>
<polygon fill="black" stroke="black" points="122.91,-64.93 113.38,-69.55 123.71,-71.88 122.91,-64.93"/>
</g>
<!-- Node1&#45;&gt;Node5 -->
<g id="edge4" class="edge">
<title>Node1&#45;&gt;Node5</title>
<path fill="none" stroke="black" d="M105.27,-57.15C119.35,-51.61 134.79,-45.55 149,-40 157.28,-36.77 166.16,-33.31 174.6,-30.04"/>
<polygon fill="black" stroke="black" points="103.79,-53.97 95.77,-60.89 106.36,-60.49 103.79,-53.97"/>
</g>
</g>
</svg>
