<?xml version="1.0" encoding="UTF-8" standalone="no"?>
<!DOCTYPE svg PUBLIC "-//W3C//DTD SVG 1.1//EN"
 "http://www.w3.org/Graphics/SVG/1.1/DTD/svg11.dtd">
<!-- Generated by graphviz version 2.47.3 (20210619.1520)
 -->
<!-- Title: example Pages: 1 -->
<svg width="225pt" height="123pt"
 viewBox="0.00 0.00 225.00 123.00" xmlns="http://www.w3.org/2000/svg" xmlns:xlink="http://www.w3.org/1999/xlink">
<g id="graph0" class="graph" transform="scale(1 1) rotate(0) translate(4 119)">
<title>example</title>
<polygon fill="white" stroke="transparent" points="-4,4 -4,-119 221,-119 221,4 -4,4"/>
<!-- Node1 -->
<g id="node1" class="node">
<title>Node1</title>
<g id="a_node1"><a xlink:title="Example function.">
<polygon fill="#bfbfbf" stroke="black" points="0,-57.5 0,-76.5 54,-76.5 54,-57.5 0,-57.5"/>
<text text-anchor="middle" x="27" y="-64.5" font-family="Helvetica,sans-Serif" font-size="10.00">example</text>
</a>
</g>
</g>
<!-- Node2 -->
<g id="node2" class="node">
<title>Node2</title>
<g id="a_node2"><a xlink:href="../../dd/d29/doubly__linked__list_8c.html#a37890fb794cb2c436ffcc643c30ec57f" target="_top" xlink:title="Create list function, a new list containing one node will be created.">
<polygon fill="white" stroke="black" points="173,-95.5 173,-114.5 217,-114.5 217,-95.5 173,-95.5"/>
<text text-anchor="middle" x="195" y="-102.5" font-family="Helvetica,sans-Serif" font-size="10.00">create</text>
</a>
</g>
</g>
<!-- Node1&#45;&gt;Node2 -->
<g id="edge1" class="edge">
<title>Node1&#45;&gt;Node2</title>
<path fill="none" stroke="midnightblue" d="M39.42,-76.71C51.2,-86.04 70.56,-99.52 90,-105 113.79,-111.71 141.87,-111.24 162.85,-109.36"/>
<polygon fill="midnightblue" stroke="midnightblue" points="163.24,-112.84 172.82,-108.31 162.51,-105.87 163.24,-112.84"/>
</g>
<!-- Node3 -->
<g id="node3" class="node">
<title>Node3</title>
<g id="a_node3"><a xlink:href="../../dd/d29/doubly__linked__list_8c.html#a04ac29c396dc8335a5827927183c9918" target="_top" xlink:title="Insertion by position into the list function.">
<polygon fill="white" stroke="black" points="93,-76.5 93,-95.5 134,-95.5 134,-76.5 93,-76.5"/>
<text text-anchor="middle" x="113.5" y="-83.5" font-family="Helvetica,sans-Serif" font-size="10.00">insert</text>
</a>
</g>
</g>
<!-- Node1&#45;&gt;Node3 -->
<g id="edge2" class="edge">
<title>Node1&#45;&gt;Node3</title>
<path fill="none" stroke="midnightblue" d="M54.27,-72.91C63.35,-74.95 73.59,-77.25 82.92,-79.35"/>
<polygon fill="midnightblue" stroke="midnightblue" points="82.43,-82.83 92.96,-81.61 83.97,-76 82.43,-82.83"/>
</g>
<!-- Node4 -->
<g id="node4" class="node">
<title>Node4</title>
<g id="a_node4"><a xlink:href="../../dd/d29/doubly__linked__list_8c.html#a1fadec32fc369a8dcfbcd766e166efa0" target="_top" xlink:title="Print list function.">
<polygon fill="white" stroke="black" points="95.5,-38.5 95.5,-57.5 131.5,-57.5 131.5,-38.5 95.5,-38.5"/>
<text text-anchor="middle" x="113.5" y="-45.5" font-family="Helvetica,sans-Serif" font-size="10.00">print</text>
</a>
</g>
</g>
<!-- Node1&#45;&gt;Node4 -->
<g id="edge4" class="edge">
<title>Node1&#45;&gt;Node4</title>
<path fill="none" stroke="midnightblue" d="M54.27,-61.09C64.2,-58.86 75.5,-56.32 85.49,-54.07"/>
<polygon fill="midnightblue" stroke="midnightblue" points="86.33,-57.47 95.31,-51.86 84.79,-50.64 86.33,-57.47"/>
</g>
<!-- Node5 -->
<g id="node5" class="node">
<title>Node5</title>
<g id="a_node5"><a xlink:href="../../dd/d29/doubly__linked__list_8c.html#aedd04074dbc6af0de89051f97209311b" target="_top" xlink:title="Search value into the list function.">
<polygon fill="white" stroke="black" points="90,-0.5 90,-19.5 137,-19.5 137,-0.5 90,-0.5"/>
<text text-anchor="middle" x="113.5" y="-7.5" font-family="Helvetica,sans-Serif" font-size="10.00">search</text>
</a>
</g>
</g>
<!-- Node1&#45;&gt;Node5 -->
<g id="edge5" class="edge">
<title>Node1&#45;&gt;Node5</title>
<path fill="none" stroke="midnightblue" d="M42.33,-57.33C55.4,-48.52 74.92,-35.35 90.05,-25.14"/>
<polygon fill="midnightblue" stroke="midnightblue" points="92.04,-28.02 98.38,-19.53 88.13,-22.22 92.04,-28.02"/>
</g>
<!-- Node3&#45;&gt;Node2 -->
<g id="edge3" class="edge">
<title>Node3&#45;&gt;Node2</title>
<path fill="none" stroke="midnightblue" d="M134.15,-90.7C142.89,-92.78 153.38,-95.29 163.13,-97.62"/>
<polygon fill="midnightblue" stroke="midnightblue" points="162.36,-101.04 172.9,-99.96 163.99,-94.23 162.36,-101.04"/>
</g>
</g>
</svg>
