<?xml version="1.0" encoding="UTF-8" standalone="no"?>
<!DOCTYPE svg PUBLIC "-//W3C//DTD SVG 1.1//EN"
 "http://www.w3.org/Graphics/SVG/1.1/DTD/svg11.dtd">
<!-- Generated by graphviz version 2.48.0 (20210717.1556)
 -->
<!-- Title: solve Pages: 1 -->
<svg width="267pt" height="104pt"
 viewBox="0.00 0.00 267.00 104.00" xmlns="http://www.w3.org/2000/svg" xmlns:xlink="http://www.w3.org/1999/xlink">
<g id="graph0" class="graph" transform="scale(1 1) rotate(0) translate(4 100)">
<title>solve</title>
<polygon fill="white" stroke="transparent" points="-4,4 -4,-100 263,-100 263,4 -4,4"/>
<!-- Node1 -->
<g id="node1" class="node">
<title>Node1</title>
<g id="a_node1"><a xlink:title="Function to solve a partially filled sudoku matrix.">
<polygon fill="#bfbfbf" stroke="black" points="0,-57.5 0,-76.5 40,-76.5 40,-57.5 0,-57.5"/>
<text text-anchor="middle" x="20" y="-64.5" font-family="Helvetica,sans-Serif" font-size="10.00">solve</text>
</a>
</g>
</g>
<!-- Node2 -->
<g id="node2" class="node">
<title>Node2</title>
<g id="a_node2"><a xlink:href="../../d5/df4/group__sudoku.html#ga62e94fc39f116e2c81daed8f5437431b" target="_top" xlink:title="Find and get the location for next empty cell.">
<polygon fill="white" stroke="black" points="76,-76.5 76,-95.5 176,-95.5 176,-76.5 76,-76.5"/>
<text text-anchor="middle" x="126" y="-83.5" font-family="Helvetica,sans-Serif" font-size="10.00">get_next_unknown</text>
</a>
</g>
</g>
<!-- Node1&#45;&gt;Node2 -->
<g id="edge1" class="edge">
<title>Node1&#45;&gt;Node2</title>
<path fill="none" stroke="midnightblue" d="M40.08,-70.48C47.48,-71.84 56.4,-73.47 65.64,-75.16"/>
<polygon fill="midnightblue" stroke="midnightblue" points="65.27,-78.64 75.73,-77 66.52,-71.76 65.27,-78.64"/>
</g>
<!-- Node3 -->
<g id="node3" class="node">
<title>Node3</title>
<g id="a_node3"><a xlink:href="../../d5/df4/group__sudoku.html#ga3a0ec150ac9d0cb6b28279d36d95d72f" target="_top" xlink:title="Check if element v is valid to place at (x,y) location.">
<polygon fill="white" stroke="black" points="110.5,-38.5 110.5,-57.5 141.5,-57.5 141.5,-38.5 110.5,-38.5"/>
<text text-anchor="middle" x="126" y="-45.5" font-family="Helvetica,sans-Serif" font-size="10.00">OK</text>
</a>
</g>
</g>
<!-- Node1&#45;&gt;Node3 -->
<g id="edge2" class="edge">
<title>Node1&#45;&gt;Node3</title>
<path fill="none" stroke="midnightblue" d="M40.08,-63.52C57.04,-60.42 81.94,-55.87 100.39,-52.5"/>
<polygon fill="midnightblue" stroke="midnightblue" points="101.2,-55.91 110.41,-50.67 99.94,-49.02 101.2,-55.91"/>
</g>
<!-- Node4 -->
<g id="node4" class="node">
<title>Node4</title>
<g id="a_node4"><a xlink:href="../../d5/df4/group__sudoku.html#ga1cd43df3f4187845ce186042fe53e6f1" target="_top" xlink:title="Check if a 3x3 box is valid.">
<polygon fill="white" stroke="black" points="212,-76.5 212,-95.5 259,-95.5 259,-76.5 212,-76.5"/>
<text text-anchor="middle" x="235.5" y="-83.5" font-family="Helvetica,sans-Serif" font-size="10.00">OKbox</text>
</a>
</g>
</g>
<!-- Node3&#45;&gt;Node4 -->
<g id="edge3" class="edge">
<title>Node3&#45;&gt;Node4</title>
<path fill="none" stroke="midnightblue" d="M141.95,-53.28C157.44,-58.76 182.16,-67.5 202.15,-74.56"/>
<polygon fill="midnightblue" stroke="midnightblue" points="201.21,-77.95 211.81,-77.98 203.55,-71.35 201.21,-77.95"/>
</g>
<!-- Node5 -->
<g id="node5" class="node">
<title>Node5</title>
<g id="a_node5"><a xlink:href="../../d5/df4/group__sudoku.html#ga6503128d4f5ce0a0826f72f73f9e0b2a" target="_top" xlink:title="Check if y^th column is valid.">
<polygon fill="white" stroke="black" points="213.5,-38.5 213.5,-57.5 257.5,-57.5 257.5,-38.5 213.5,-38.5"/>
<text text-anchor="middle" x="235.5" y="-45.5" font-family="Helvetica,sans-Serif" font-size="10.00">OKcol</text>
</a>
</g>
</g>
<!-- Node3&#45;&gt;Node5 -->
<g id="edge4" class="edge">
<title>Node3&#45;&gt;Node5</title>
<path fill="none" stroke="midnightblue" d="M141.95,-48C157.77,-48 183.19,-48 203.39,-48"/>
<polygon fill="midnightblue" stroke="midnightblue" points="203.4,-51.5 213.4,-48 203.4,-44.5 203.4,-51.5"/>
</g>
<!-- Node6 -->
<g id="node6" class="node">
<title>Node6</title>
<g id="a_node6"><a xlink:href="../../d5/df4/group__sudoku.html#ga85d25d3b40017436f264a103685e4c55" target="_top" xlink:title="Check if x^th row is valid.">
<polygon fill="white" stroke="black" points="212,-0.5 212,-19.5 259,-19.5 259,-0.5 212,-0.5"/>
<text text-anchor="middle" x="235.5" y="-7.5" font-family="Helvetica,sans-Serif" font-size="10.00">OKrow</text>
</a>
</g>
</g>
<!-- Node3&#45;&gt;Node6 -->
<g id="edge5" class="edge">
<title>Node3&#45;&gt;Node6</title>
<path fill="none" stroke="midnightblue" d="M141.95,-42.72C157.44,-37.24 182.16,-28.5 202.15,-21.44"/>
<polygon fill="midnightblue" stroke="midnightblue" points="203.55,-24.65 211.81,-18.02 201.21,-18.05 203.55,-24.65"/>
</g>
</g>
</svg>
